STARTFONT 2.1
FONT HAN-GB2312
SIZE 10 72 72
FONTBOUNDINGBOX 5 10 0 0
STARTPROPERTIES 1
BITCOUNT 8
ENDPROPERTIES
CHARS 27
STARTCHAR  00A4
ENCODING  164
SWIDTH  1000 0
DWIDTH  6 0
BBX  6 6 0 0
BITMAP
002000002000
30E0E0E0E030
00E02020E000
00E02020E000
30E0E0E0E030
002000002000
ENDCHAR
STARTCHAR  00A7
ENCODING  167
SWIDTH  1000 0
DWIDTH  5 0
BBX  5 7 0 0
BITMAP
00A0FFA000
00F0308010
00E0E08000
30E020E030
0080F0E000
108030F000
00A0FFA000
ENDCHAR
STARTCHAR  00A8
ENCODING  168
SWIDTH  1000 0
DWIDTH  5 0
BBX  4 9 1 0
BITMAP
F000F000
00000000
FFFFFF20
FF000000
FF000000
FFFFF000
FF000000
FF000000
FFFFFF30
ENDCHAR
STARTCHAR  00B0
ENCODING  176
SWIDTH  1000 0
DWIDTH  3 0
BBX  3 3 0 4
BITMAP
80F080
F030F0
80F080
ENDCHAR
STARTCHAR  00B1
ENCODING  177
SWIDTH  1000 0
DWIDTH  5 0
BBX  5 5 0 0
BITMAP
0000FF0000
0000FF0000
80FFFFFF80
0000FF0000
80FFFFFF80
ENDCHAR
STARTCHAR  00B7
ENCODING  183
SWIDTH  1000 0
DWIDTH  3 0
BBX  2 1 1 3
BITMAP
E040
ENDCHAR
STARTCHAR  00D7
ENCODING  215
SWIDTH  1000 0
DWIDTH  4 0
BBX  3 7 0 0
BITMAP
FF00FF
FF00FF
FF10FF
A0F0FF
0000FF
0000FF
0000FF
ENDCHAR
STARTCHAR  00E0
ENCODING  224
SWIDTH  1000 0
DWIDTH  4 0
BBX  3 5 0 0
BITMAP
80F0A0
6010FF
A0FFFF
F010FF
C0C0FF
ENDCHAR
STARTCHAR  00E1
ENCODING  225
SWIDTH  1000 0
DWIDTH  3 0
BBX  3 7 0 0
BITMAP
0060E0
A0A030
E0E0C0
FF10FF
FF00FF
FF10FF
A0F0A0
ENDCHAR
STARTCHAR  00E8
ENCODING  232
SWIDTH  1000 0
DWIDTH  5 0
BBX  3 5 1 0
BITMAP
FF00FF
FF60FF
FFC0FF
FF60FF
FF10FF
ENDCHAR
STARTCHAR  00E9
ENCODING  233
SWIDTH  1000 0
DWIDTH  5 0
BBX  3 7 1 0
BITMAP
806080
40F040
FF00FF
FF60FF
FFC0FF
FF60FF
FF10FF
ENDCHAR
STARTCHAR  00EA
ENCODING  234
SWIDTH  1000 0
DWIDTH  4 0
BBX  4 5 1 0
BITMAP
FF00E040
FF30C000
FFFF8000
FF40C000
FF00E020
ENDCHAR
STARTCHAR  00EC
ENCODING  236
SWIDTH  1000 0
DWIDTH  6 0
BBX  4 5 1 0
BITMAP
FF3020FF
FF8080FF
FFC0C0FF
FF8080FF
FF1010FF
ENDCHAR
STARTCHAR  00ED
ENCODING  237
SWIDTH  1000 0
DWIDTH  5 0
BBX  3 5 1 0
BITMAP
FF00FF
FF00FF
FFFFFF
FF00FF
FF00FF
ENDCHAR
STARTCHAR  00F2
ENCODING  242
SWIDTH  1000 0
DWIDTH  3 0
BBX  3 5 0 0
BITMAP
F0FFFF
00FF00
00FF00
00FF00
00FF00
ENDCHAR
STARTCHAR  00F3
ENCODING  243
SWIDTH  1000 0
DWIDTH  4 0
BBX  4 7 0 -2
BITMAP
C0608080
80A0A040
20E0E010
00E0E000
0080A000
00A06000
60E01000
ENDCHAR
STARTCHAR  00F7
ENCODING  247
SWIDTH  1000 0
DWIDTH  4 0
BBX  3 5 0 0
BITMAP
FF00FF
FF00FF
C0E0FF
0000FF
0000FF
ENDCHAR
STARTCHAR  00F9
ENCODING  249
SWIDTH  1000 0
DWIDTH  7 0
BBX  6 6 1 -1
BITMAP
FF00FF00FF00
FF00FF00FF00
FF00FF00FF00
FF00FF00FF00
FFE0FFE0FF80
000000006080
ENDCHAR
STARTCHAR  00FA
ENCODING  250
SWIDTH  1000 0
DWIDTH  5 0
BBX  6 5 -1 0
BITMAP
00FFFF000000
0000FF000000
0000FFF0A000
0000FF10FF00
0000FFFFC000
ENDCHAR
STARTCHAR  00FC
ENCODING  252
SWIDTH  1000 0
DWIDTH  5 0
BBX  4 5 1 0
BITMAP
FF000000
FF000000
FFF0A000
FF10FF00
FFF0C000
ENDCHAR
STARTCHAR  2014
ENCODING  8212
SWIDTH  1000 0
DWIDTH  6 0
BBX  7 1 0 2
BITMAP
A0FFFFFFFFFF10
ENDCHAR
STARTCHAR  2018
ENCODING  8216
SWIDTH  1000 0
DWIDTH  2 0
BBX  1 3 0 5
BITMAP
00
A0
FF
ENDCHAR
STARTCHAR  2019
ENCODING  8217
SWIDTH  1000 0
DWIDTH  2 0
BBX  1 3 0 4
BITMAP
FF
A0
00
ENDCHAR
STARTCHAR  201C
ENCODING  8220
SWIDTH  1000 0
DWIDTH  3 0
BBX  3 3 0 5
BITMAP
000000
A000A0
FF00FF
ENDCHAR
STARTCHAR  201D
ENCODING  8221
SWIDTH  1000 0
DWIDTH  4 0
BBX  3 3 0 4
BITMAP
FF00FF
A00080
000000
ENDCHAR
STARTCHAR  2026
ENCODING  8230
SWIDTH  1000 0
DWIDTH  5 0
BBX  5 1 0 0
BITMAP
A060E040E0
ENDCHAR
STARTCHAR  2030
ENCODING  8240
SWIDTH  1000 0
DWIDTH  8 0
BBX  8 7 0 0
BITMAP
C0C0006000000000
FFF0006000000000
FFF0401000000000
A0A060A0A000A0A0
001040F0F000F0F0
006000FFF000FFF0
006000E0E000E0E0
ENDCHAR
ENDFONT
